<svg width="16" height="16" viewBox="0 0 16 16" fill="none" xmlns="http://www.w3.org/2000/svg">
<g id="Icon_Verify">
<g id="verify">
<path id="Vector" d="M6.99322 0.353911C7.54501 -0.11797 8.44866 -0.11797 9.00845 0.353911L10.272 1.44164C10.5119 1.64959 10.9597 1.81755 11.2796 1.81755H12.6391C13.4867 1.81755 14.1825 2.51337 14.1825 3.36116V4.72082C14.1825 5.03274 14.3504 5.48863 14.5583 5.72857L15.6459 6.99225C16.1177 7.54411 16.1177 8.44789 15.6459 9.00775L14.5583 10.2714C14.3504 10.5114 14.1825 10.9593 14.1825 11.2792V12.6388C14.1825 13.4866 13.4867 14.1825 12.6391 14.1825H11.2796C10.9677 14.1825 10.5119 14.3504 10.272 14.5584L9.00845 15.6461C8.45666 16.118 7.55301 16.118 6.99322 15.6461L5.7297 14.5584C5.48979 14.3504 5.04196 14.1825 4.72208 14.1825H3.33861C2.49093 14.1825 1.79519 13.4866 1.79519 12.6388V11.2712C1.79519 10.9593 1.62726 10.5114 1.42733 10.2714L0.347746 8.99975C-0.116078 8.44789 -0.116078 7.55211 0.347746 7.00025L1.42733 5.72857C1.62726 5.48863 1.79519 5.04074 1.79519 4.72882V3.35316C1.79519 2.50537 2.49093 1.80955 3.33861 1.80955H4.72208C5.03396 1.80955 5.48979 1.64159 5.7297 1.43364L6.99322 0.353911Z" fill="#4AB817"/>
<path id="Vector_2" d="M7.44491 10.2183C7.31157 10.2183 7.18491 10.165 7.09158 10.0717L5.47825 8.45833C5.28492 8.265 5.28492 7.945 5.47825 7.75167C5.67158 7.55833 5.99158 7.55833 6.18491 7.75167L7.44491 9.01167L10.3116 6.145C10.5049 5.95167 10.8249 5.95167 11.0182 6.145C11.2116 6.33833 11.2116 6.65833 11.0182 6.85167L7.79824 10.0717C7.70491 10.165 7.57824 10.2183 7.44491 10.2183Z" fill="white"/>
</g>
</g>
</svg>
